<?xml version="1.0" encoding="UTF-8" standalone="no"?>
<!DOCTYPE svg PUBLIC "-//W3C//DTD SVG 1.1//EN" "http://www.w3.org/Graphics/SVG/1.1/DTD/svg11.dtd">
<!-- Created with Vectornator (http://vectornator.io/) -->
<svg height="100%" stroke-miterlimit="10" style="fill-rule:nonzero;clip-rule:evenodd;stroke-linecap:round;stroke-linejoin:round;" version="1.1" viewBox="0 0 500 500" width="100%" xml:space="preserve" xmlns="http://www.w3.org/2000/svg" xmlns:xlink="http://www.w3.org/1999/xlink">
<defs>
<path d="M251.66 218.101C226.863 218.101 206.785 238.212 206.785 263.008C206.785 287.804 226.863 307.914 251.66 307.914C276.456 307.914 296.565 287.804 296.565 263.008C296.565 257.35 295.414 251.994 293.504 247.008C290.169 252.09 284.443 255.445 277.91 255.445C267.601 255.445 259.222 247.098 259.222 236.789C259.222 230.256 262.608 224.499 267.69 221.164C262.704 219.254 257.318 218.101 251.66 218.101Z" id="Fill"/>
</defs>
<g id="Layer-1">
<g opacity="1">
<g opacity="1">
<path d="M390.543 261.869C390.543 261.869 329.442 328.358 294.274 333.934C259.106 339.51 251.508 339.012 251.508 339.012" fill="none" opacity="1" stroke="#000000" stroke-linecap="butt" stroke-linejoin="round" stroke-width="4.05796"/>
<path d="M390.326 264.144C390.326 264.144 329.224 197.655 294.056 192.078C258.888 186.502 251.291 187 251.291 187" fill="none" opacity="1" stroke="#000000" stroke-linecap="butt" stroke-linejoin="round" stroke-width="4.05796"/>
<path d="M122.796 271.463C122.796 271.463 181.078 329.684 214.624 334.567C248.169 339.449 255.416 339.014 255.416 339.014" fill="none" opacity="1" stroke="#000000" stroke-linecap="butt" stroke-linejoin="round" stroke-width="4.05796"/>
</g>
<g opacity="1">
<path d="M109.457 271.072L248.018 271.072" fill="none" opacity="1" stroke="#000000" stroke-linecap="butt" stroke-linejoin="round" stroke-width="4.05796"/>
<path d="M249.675 160.976L249.675 273.247" fill="none" opacity="1" stroke="#000000" stroke-linecap="butt" stroke-linejoin="round" stroke-width="4.05796"/>
</g>
<path d="M178.73 270.247L179.113 228.514L167.561 228.686L167.481 219.839L188.324 211.417L188 193.466L201.077 193.466L200.835 203.041L224.612 186.256L251.675 208.536" fill="none" opacity="1" stroke="#000000" stroke-linecap="butt" stroke-linejoin="round" stroke-width="4.05796"/>
<path d="M255.11 186.992C253.445 186.992 251.811 187.137 250.173 187.242L250.173 272.461L179.735 272.461C184.389 309.983 216.329 339.024 255.11 339.024C297.092 339.024 331.11 305.006 331.11 263.024C331.11 221.042 297.092 186.992 255.11 186.992Z" fill="none" opacity="1" stroke="#000000" stroke-linecap="butt" stroke-linejoin="round" stroke-width="4.05796"/>
<g opacity="1">
<use fill="#ffffff" fill-rule="nonzero" opacity="1" stroke="none" xlink:href="#Fill"/>
<clipPath clip-rule="nonzero" id="ClipPath">
<use xlink:href="#Fill"/>
</clipPath>
<g clip-path="url(#ClipPath)">
<g opacity="1">
<path d="M299.465 166.523L298.031 376.337L203.885 375.646L205.319 165.832L299.465 166.523Z" fill="#770088" fill-rule="nonzero" opacity="1" stroke="none"/>
<path d="M299.465 166.523L298.031 376.337L219.576 375.761L221.01 165.947L299.465 166.523Z" fill="#004cff" fill-rule="nonzero" opacity="1" stroke="none"/>
<path d="M299.465 166.523L298.031 376.337L235.267 375.877L236.701 166.062L299.465 166.523Z" fill="#028121" fill-rule="nonzero" opacity="1" stroke="none"/>
<path d="M299.465 166.523L298.031 376.337L250.958 375.992L252.392 166.177L299.465 166.523Z" fill="#ffee00" fill-rule="nonzero" opacity="1" stroke="none"/>
<path d="M299.465 166.523L298.031 376.337L266.649 376.107L268.083 166.293L299.465 166.523Z" fill="#ff8d00" fill-rule="nonzero" opacity="1" stroke="none"/>
<path d="M299.465 166.523L298.031 376.337L282.34 376.222L283.774 166.408L299.465 166.523Z" fill="#e50000" fill-rule="nonzero" opacity="1" stroke="none"/>
</g>
</g>
</g>
</g>
</g>
</svg>
